<svg width="48" height="48" viewBox="0 0 48 48" fill="none" xmlns="http://www.w3.org/2000/svg">
<rect x="0.5" y="0.5" width="47" height="47" rx="23.5" stroke="#35618E"/>
<path d="M15.2638 19.5091C16.9093 16.2409 20.291 14 24.2002 14C26.8956 14 29.1592 14.9909 30.8911 16.6045L28.0229 19.4727C26.9866 18.4819 25.6683 17.9773 24.2002 17.9773C21.5956 17.9773 19.391 19.7364 18.6047 22.1C18.4047 22.7 18.2911 23.3409 18.2911 24C18.2911 24.6591 18.4047 25.3 18.6047 25.9C19.391 28.2636 21.5956 30.0227 24.2002 30.0227C25.5456 30.0227 26.6911 29.6682 27.5866 29.0682C28.6456 28.3591 29.3502 27.3 29.582 26.05H24.2002V22.1818H33.6183C33.7366 22.8363 33.8002 23.5182 33.8002 24.2273C33.8002 27.2727 32.7093 29.8363 30.8183 31.5773C29.1638 33.1046 26.9002 34 24.2002 34C20.291 34 16.9093 31.7591 15.2638 28.4909C14.5866 27.1409 14.2002 25.6136 14.2002 24C14.2002 22.3864 14.5866 20.8591 15.2638 19.5091Z" fill="#35618E"/>
</svg>
